<?xml version="1.0" encoding="utf-8"?>
<!-- Svg Vector Icons : http://www.onlinewebfonts.com/icon -->
<!DOCTYPE svg PUBLIC "-//W3C//DTD SVG 1.1//EN" "http://www.w3.org/Graphics/SVG/1.1/DTD/svg11.dtd">
<svg version="1.1" xmlns="http://www.w3.org/2000/svg" xmlns:xlink="http://www.w3.org/1999/xlink" x="0px" y="0px" viewBox="0 0 256 256" enable-background="new 0 0 256 256" xml:space="preserve">
<metadata> Svg Vector Icons : http://www.onlinewebfonts.com/icon </metadata>
<g><g><g><path fill="#000000" d="M150.7,10.4c-2.2,0.8-3.8,3.1-5,7.1l-1.2,4.2l-1.8-0.9c-3.3-1.7-7.1-0.9-8.9,2c-1.4,2.2-2.3,10.8-1.5,15.4c1.4,9,7.9,16.7,16.4,19.2c3,0.9,3.2,1.4,3.4,9.5l0.1,4.9l-14.1,6.6c-7.7,3.6-14.3,6.4-14.5,6.1c-0.6-0.6-8.5-21.2-8.5-22c0-0.4,0.7-1.1,1.5-1.7c3-2,6.1-5.7,8-9.6c1.7-3.6,1.9-4.5,1.9-9.9c0-5.5-0.1-6.1-2.3-10.5c-1.3-2.6-3.7-6.2-5.5-8.1c-3-3.1-3.4-3.4-5.9-3.4c-2.3,0-3,0.3-5,2.5l-2.3,2.4l-2.7-2.3c-5.2-4.5-8-5-11.3-1.7c-2,2-2.1,2.3-2.1,6.8v4.7l-2.1-0.4c-2.6-0.5-6,0.8-7.4,2.8c-1.8,2.6-0.7,11.3,2.2,17.5c3.5,7.4,11.3,12.7,19.4,13.1l4.4,0.2l4.7,12c2.6,6.6,4.7,12.1,4.5,12.2c-0.6,0.5-18,8.3-18.6,8.3c-0.4,0-2.7-2-5.2-4.5l-4.5-4.5l1.4-3.1c1.2-2.5,1.4-4.1,1.4-9.2c0-5.3-0.2-6.6-1.6-9.6c-2.1-4.4-5.3-7.9-10.6-11.7c-3.1-2.2-4.9-3-6.3-3c-3.8,0-6.9,2.6-6.9,5.7c0,1-0.1,1.7-0.3,1.7c-0.1,0-1.8-0.7-3.8-1.6c-6-2.7-9.7-2-11.6,2.2c-1,2-1,2.5-0.1,5.9c0.5,2,1.2,4.2,1.4,4.7c0.4,0.9,0.1,1.1-1.2,1.1c-3.9,0-6.8,3.1-6.7,7c0.1,4.2,6,13.2,11,16.7c3.4,2.5,9.7,4.5,13.4,4.5c3.6-0.1,7.6-1,11.3-2.9l3.3-1.7l3,3c1.7,1.7,3.1,3.2,3.1,3.4c0,0.2-4.1,2.3-9,4.5c-12.8,5.8-14.3,8-9.2,12.9c2.4,2.3,30.1,28,105.9,98.1c16.8,15.6,31.4,28.5,32.2,28.8c1.9,0.4,4.3-0.7,5-2.4c0.5-1-0.5-12.7-3.6-42.9l-4.2-41.4l3.5-3.4c2.5-2.5,3.8-4.4,4.9-7.1c1.5-4.3,2.5-12.4,2-17l-0.3-3.3l-2.6,0.2c-1.4,0.1-3.4,0.3-4.5,0.5l-2,0.3v5.1c0,4.4-1.5,12-2.2,11.3c-0.1-0.1-2.2-19.6-4.6-43.2c-2.4-23.7-4.6-43.8-5-44.7c-0.9-2.2-3.3-3-6.1-2c-1.2,0.4-7.3,3.2-13.5,6.1c-6.2,2.9-11.5,5.2-11.6,5c-0.2-0.1-0.4-2.3-0.6-4.9c-0.2-4.1-0.2-4.6,0.8-4.6c2,0,8.3-3.8,10.8-6.6c6.8-7.4,8-18.6,3.1-28.8c-2.3-4.8-3.8-6.1-7.1-6.1c-2.1,0-3.1,0.4-4.5,1.7l-1.8,1.7l-2.3-3.7C157.3,10.8,154.3,9.1,150.7,10.4z M155.9,26c0.9,1.4,2.3,2.9,3.1,3.4c2.1,1.4,5.7,1.2,7.7-0.3l1.7-1.3l0.6,2.3c2.7,9.7-3.8,18.7-13.5,18.7c-8.1,0-14.1-6-14.1-14.3c0-2.9,0.1-3.1,1.2-2.5c3.6,1.9,8.5-0.4,9.9-4.8c0.4-1.2,0.8-2.6,0.9-3.1C153.8,23.1,154.1,23.3,155.9,26z M104.2,35c2.4,1.4,5.3,0.7,7.6-1.7l1.9-1.9l1.3,2.1c6.5,10.5-1.3,23.1-13.5,22c-5.8-0.6-11.1-5.5-12.6-11.7c-0.4-1.6-0.4-1.7,1.7-1.3c4.5,0.7,7.9-3,7.9-8.7v-3l2,1.7C101.5,33.2,103.2,34.4,104.2,35z M75.9,65.6c3.4,3.4,4.3,5.6,4.3,10.5c0,4.9-0.8,6.9-4.4,10.4c-6,5.8-15.7,4.9-21-2.1l-2.1-2.7l1.4-0.6c3.4-1.4,4.2-2,5.2-4c0.9-1.9,0.9-2.6,0.2-5.3c-0.4-1.7-0.9-3.5-1.1-3.9c-0.2-0.5,0.7-0.4,2.6,0.5c4.4,1.8,7.4,1.7,9.6-0.7c1-1,1.8-2.5,1.8-3.1C72.6,62.9,73.5,63.2,75.9,65.6z M185.1,67.6c0,0.3,2,19.4,4.3,42.6c3.3,31.8,4.1,42.2,3.6,42.5c-1.6,1-9.2,1.3-21,0.9c-19.8-0.7-30,1.1-38.2,6.8l-4.1,2.7L106,141.1c-13-12.1-24.4-22.6-25.3-23.4c-1.4-1.2-1.5-1.5-0.7-2c1.2-0.8,104-48.4,104.7-48.5C184.9,67.2,185.1,67.4,185.1,67.6z M196.2,176.6c0.7,7.6,2.3,22.5,3.3,33c1.1,10.6,1.8,19.2,1.6,19.2c-0.4,0-63.6-58.4-63.8-59.1c-0.3-0.7,5.1-3.6,9.3-5c5-1.6,11.6-2,31.5-2h16.7L196.2,176.6z"/></g></g></g>
</svg>